<?xml version="1.0" encoding="UTF-8"?>
<!DOCTYPE svg PUBLIC "-//W3C//DTD SVG 1.1//EN" "http://www.w3.org/Graphics/SVG/1.1/DTD/svg11.dtd">
<!-- Creator: CorelDRAW X8 -->
<svg xmlns="http://www.w3.org/2000/svg" xml:space="preserve" width="239.277mm" height="158.549mm" version="1.1" style="shape-rendering:geometricPrecision; text-rendering:geometricPrecision; image-rendering:optimizeQuality; fill-rule:evenodd; clip-rule:evenodd"
viewBox="0 0 23928 15855"
 xmlns:xlink="http://www.w3.org/1999/xlink">
 <defs>
  <style type="text/css">
   <![CDATA[
    .fil0 {fill:white;fill-rule:nonzero}
   ]]>
  </style>
 </defs>
 <g id="Layer_x0020_1">
  <metadata id="CorelCorpID_0Corel-Layer"/>
  <path class="fil0" d="M13064 1139c0,305 -123,657 -370,1056 -205,370 -440,628 -692,763 -259,141 -388,129 -388,-35 0,-18 77,-100 229,-253 458,-428 687,-780 687,-1056 0,-593 -587,-886 -1761,-886 -499,0 -1150,94 -1966,276 -816,187 -1602,487 -2359,903 -886,482 -1326,904 -1326,1262 0,288 270,564 804,828 287,135 868,369 1731,692 863,323 1555,611 2089,851 534,241 1039,581 1514,1021 109,101 205,204 289,310 1215,-916 3051,-1490 5509,-1722 408,-33 882,-47 1432,-47 544,0 1239,80 2080,240 840,159 1530,455 2070,882 860,710 1292,1635 1292,2776 0,1141 -338,2197 -1019,3164 -681,968 -1545,1714 -2592,2245 -1047,530 -2169,798 -3362,798 -1193,0 -2160,-282 -2902,-845 -9,9 -61,103 -155,281 -94,174 -192,348 -291,512 -507,803 -958,916 -1357,334 -230,-343 -347,-756 -347,-1231 0,-474 47,-1047 145,-1718 14,-71 -33,-225 -131,-465 -33,-113 4,-225 117,-333 89,-66 211,-122 371,-165 160,-42 272,-42 333,0 61,43 47,165 -42,357 -89,193 -131,371 -131,535 0,165 169,414 511,738 343,324 550,502 630,526 267,-653 831,-1874 1690,-3663 99,-202 150,-352 150,-451 0,-98 -9,-173 -33,-230 52,-319 404,-826 1052,-1526 643,-695 1165,-1042 1564,-1042 155,0 347,51 582,155 230,108 362,253 394,441 0,71 -4,103 -14,108 -14,5 -42,0 -84,-23 -42,-24 -75,-33 -99,-33 -352,0 -770,258 -1249,770 -209,221 -416,471 -623,752 52,72 78,170 78,295l0 842 -111 0 -66 -149c-77,64 -144,108 -200,130 -57,23 -122,34 -195,34 -89,0 -163,-20 -222,-59 -32,56 -65,112 -98,169 -840,1432 -1512,2705 -2019,3808 686,498 1432,747 2235,747 1047,0 2052,-273 3015,-812 962,-540 1733,-1165 2319,-1874 949,-1160 1423,-2301 1423,-3428 0,-826 -328,-1568 -981,-2221 -658,-652 -1700,-1000 -3123,-1042 -70,0 -136,0 -202,0 -1126,0 -2314,183 -3559,554 -1249,371 -2315,897 -3197,1582 -67,52 -132,104 -193,157 17,101 26,205 26,310 0,540 -316,1127 -950,1761 -56,53 -113,105 -170,157 29,89 74,172 136,250 118,145 240,244 366,295 127,57 287,118 479,184 193,70 320,117 381,140 61,29 94,61 108,94 23,89 -57,132 -235,132 -409,-33 -817,-188 -1230,-456 -156,-99 -282,-206 -379,-319 -880,713 -1955,1323 -3224,1829 -1544,617 -2870,922 -3973,922 -2183,0 -3275,-616 -3275,-1843 0,-1227 669,-2271 2013,-3122 1103,-757 2259,-1139 3474,-1139 288,0 423,47 394,141 -30,100 -235,147 -617,153 -387,6 -886,141 -1490,393 -611,258 -1180,628 -1702,1109 -687,622 -1033,1244 -1033,1866 0,388 188,734 557,1033 370,305 1086,458 2137,458 1050,0 2083,-164 3104,-499 1556,-517 2701,-1067 3434,-1650 -30,-92 -45,-187 -45,-285 0,-52 5,-108 19,-164l-33 -268c0,-652 243,-1247 725,-1785 -191,-207 -454,-387 -790,-543 -898,-416 -2154,-892 -3768,-1432 -622,-205 -1150,-481 -1584,-821 -434,-335 -652,-746 -652,-1221 0,-475 259,-939 781,-1403 516,-463 1138,-833 1872,-1109 1573,-593 2905,-892 3991,-892 1520,0 2277,381 2277,1139zm-2223 8223c49,-63 93,-126 134,-189 222,-316 333,-585 334,-801 -249,324 -405,655 -468,990zm6062 -188c-46,65 -92,132 -137,200 16,0 33,0 50,0l104 0c0,-82 -5,-149 -17,-200zm-246 364c-80,123 -160,251 -240,383 36,42 83,63 141,63 60,0 117,-14 172,-42 54,-28 119,-76 192,-144l0 -266 -114 0c-56,0 -106,2 -151,6zm-4177 3561c0,1493 103,2239 315,2239 155,0 375,-385 662,-1159 23,-33 33,-57 33,-66 -75,-66 -235,-230 -484,-488 -249,-259 -427,-437 -526,-526zm-8940 -3562l-805 0c0,162 39,276 115,344 77,67 173,101 289,101 59,0 100,-3 124,-9 24,-6 46,-12 66,-18 21,-6 36,-10 44,-14 42,-12 79,-22 109,-32l30 146c-168,59 -299,88 -393,88 -174,0 -312,-53 -417,-158 -104,-105 -156,-263 -156,-474 0,-211 49,-375 148,-493 98,-118 222,-177 373,-177 150,0 267,49 352,146 84,98 126,230 126,397 0,45 -2,97 -5,153zm-793 -143l616 0c0,-125 -21,-221 -65,-288 -44,-67 -120,-101 -228,-101 -109,0 -188,37 -239,109 -51,72 -79,166 -84,280zm2193 -530l265 447 265 -447 209 0 -370 620 385 644 -209 0 -280 -500 -280 500 -209 0 385 -644 -370 -620 209 0zm2909 673l-805 0c0,162 39,276 116,344 76,67 172,101 288,101 59,0 101,-3 124,-9 24,-6 46,-12 67,-18 21,-6 36,-10 43,-14 43,-12 79,-22 109,-32l30 146c-168,59 -299,88 -393,88 -173,0 -312,-53 -416,-158 -105,-105 -157,-263 -157,-474 0,-211 49,-375 148,-493 98,-118 222,-177 373,-177 151,0 268,49 352,146 84,98 126,230 126,397 0,45 -1,97 -5,153zm-792 -143l615 0c0,-125 -21,-221 -65,-288 -43,-67 -120,-101 -228,-101 -108,0 -188,37 -239,109 -50,72 -78,166 -83,280zm3012 143l-804 0c0,162 38,276 115,344 76,67 172,101 288,101 60,0 101,-3 125,-9 23,-6 45,-12 66,-18 21,-6 36,-10 44,-14 42,-12 78,-22 108,-32l31 146c-169,59 -299,88 -394,88 -173,0 -312,-53 -416,-158 -105,-105 -157,-263 -157,-474 0,-211 50,-375 148,-493 98,-118 223,-177 374,-177 150,0 267,49 352,146 83,98 125,230 125,397 0,45 -1,97 -5,153zm-792 -143l616 0c0,-125 -22,-221 -65,-288 -44,-67 -120,-101 -228,-101 -109,0 -189,37 -239,109 -51,72 -79,166 -84,280zm9315 462l0 -838 -172 0 0 -152 175 0 0 -360 189 0 0 360 308 0 0 152 -310 0 0 803c0,112 57,168 171,168 27,0 68,-5 124,-15l28 136c-69,22 -140,33 -213,33 -74,0 -142,-22 -205,-67 -63,-44 -95,-118 -95,-220zm2705 -319l-804 0c0,162 38,276 115,344 76,67 172,101 288,101 59,0 101,-3 125,-9 23,-6 45,-12 66,-18 21,-6 36,-10 44,-14 42,-12 78,-22 108,-32l30 146c-168,59 -299,88 -393,88 -173,0 -312,-53 -416,-158 -105,-105 -157,-263 -157,-474 0,-211 50,-375 148,-493 98,-118 223,-177 374,-177 150,0 267,49 351,146 84,98 126,230 126,397 0,45 -1,97 -5,153zm-792 -143l616 0c0,-125 -22,-221 -65,-288 -44,-67 -121,-101 -229,-101 -108,0 -188,37 -238,109 -51,72 -79,166 -84,280z"/>
 </g>
</svg>
