<?xml version="1.0" encoding="UTF-8"?>
<!DOCTYPE svg PUBLIC "-//W3C//DTD SVG 1.1//EN" "http://www.w3.org/Graphics/SVG/1.1/DTD/svg11.dtd">
<!-- Creator: CorelDRAW X8 -->
<svg xmlns="http://www.w3.org/2000/svg" xml:space="preserve" width="239.277mm" height="158.549mm" version="1.1" style="shape-rendering:geometricPrecision; text-rendering:geometricPrecision; image-rendering:optimizeQuality; fill-rule:evenodd; clip-rule:evenodd"
viewBox="0 0 7260 4811"
 xmlns:xlink="http://www.w3.org/1999/xlink">
 <defs>
  <style type="text/css">
   <![CDATA[
    .fil0 {fill:#B71C1C;fill-rule:nonzero}
   ]]>
  </style>
 </defs>
 <g id="Layer_x0020_1">
  <metadata id="CorelCorpID_0Corel-Layer"/>
  <path class="fil0" d="M3964 345c0,93 -37,200 -112,321 -63,112 -134,191 -210,232 -79,42 -118,39 -118,-11 0,-6 23,-30 70,-77 139,-130 208,-237 208,-320 0,-180 -178,-269 -534,-269 -152,0 -349,28 -597,84 -247,56 -486,147 -716,274 -269,146 -402,274 -402,383 0,87 82,171 244,251 87,41 263,112 525,210 262,98 472,185 634,258 162,73 315,176 460,310 32,30 62,62 87,94 369,-278 926,-452 1672,-523 124,-10 267,-14 434,-14 165,0 376,24 631,73 255,48 465,138 629,268 260,215 391,496 391,842 0,346 -102,667 -309,960 -206,294 -468,520 -786,681 -318,161 -658,242 -1020,242 -362,0 -656,-85 -881,-256 -3,3 -18,31 -47,85 -28,53 -58,106 -88,156 -154,243 -291,277 -412,101 -70,-104 -105,-230 -105,-374 0,-143 14,-317 44,-521 4,-21 -10,-68 -40,-141 -10,-34 1,-68 36,-101 27,-20 64,-37 112,-50 49,-13 83,-13 101,0 19,13 14,50 -13,108 -27,59 -39,113 -39,163 0,50 51,125 155,223 104,99 167,153 191,160 81,-198 252,-569 513,-1111 30,-62 45,-107 45,-137 0,-30 -3,-53 -10,-70 16,-97 123,-251 319,-463 196,-211 354,-316 475,-316 47,0 105,15 177,47 69,32 109,77 119,134 0,21 -1,31 -4,32 -4,2 -13,0 -26,-7 -13,-7 -23,-10 -30,-10 -106,0 -233,79 -379,234 -63,67 -126,143 -189,228 16,22 24,52 24,90l0 255 -34 0 -20 -45c-23,19 -43,33 -60,39 -18,7 -37,11 -60,11 -27,0 -49,-6 -67,-18 -10,17 -20,34 -30,51 -255,435 -458,821 -612,1156 208,151 434,226 678,226 318,0 623,-82 915,-246 292,-164 525,-354 703,-569 288,-352 432,-698 432,-1040 0,-251 -100,-476 -298,-674 -199,-198 -515,-303 -947,-316 -21,0 -41,0 -61,0 -342,0 -703,55 -1080,168 -379,113 -703,272 -971,480 -20,16 -39,32 -58,48 5,31 8,62 8,94 0,164 -96,342 -288,534 -17,16 -35,32 -52,48 9,27 22,52 41,75 36,45 73,75 112,90 38,17 86,36 145,56 58,21 97,35 115,43 19,8 29,18 33,28 7,27 -17,40 -71,40 -124,-10 -248,-57 -374,-138 -47,-30 -85,-63 -114,-97 -268,216 -594,401 -979,555 -468,187 -871,280 -1205,280 -663,0 -994,-187 -994,-560 0,-372 203,-689 611,-947 335,-230 685,-345 1054,-345 87,0 128,14 119,42 -9,31 -71,45 -187,47 -117,1 -269,42 -452,119 -185,78 -358,190 -516,336 -209,189 -314,378 -314,567 0,117 57,222 169,313 113,93 330,139 649,139 318,0 632,-50 942,-151 472,-157 819,-324 1042,-501 -9,-28 -14,-57 -14,-86 0,-16 1,-33 6,-50l-10 -82c0,-197 73,-378 220,-541 -58,-63 -138,-118 -240,-165 -272,-126 -654,-271 -1143,-434 -189,-63 -349,-146 -481,-250 -132,-101 -198,-226 -198,-370 0,-144 79,-285 237,-426 157,-140 346,-253 568,-336 477,-180 882,-271 1211,-271 461,0 691,116 691,345zm-675 2496c15,-19 29,-38 41,-58 67,-95 101,-177 102,-243 -76,99 -124,199 -143,301zm1840 -57c-14,19 -28,40 -42,60 5,0 10,0 16,0l31 0c0,-25 -2,-45 -5,-60zm-75 110c-24,37 -48,76 -72,116 10,13 25,20 42,20 18,0 36,-5 52,-13 17,-9 36,-23 59,-44l0 -81 -35 0c-17,0 -32,1 -46,2zm-1267 1081c0,453 31,679 95,679 47,0 114,-117 201,-352 7,-10 10,-17 10,-20 -23,-20 -71,-70 -147,-148 -75,-78 -129,-132 -159,-159zm-2713 -1081l-244 0c0,49 12,84 35,104 23,21 52,31 87,31 18,0 31,-1 38,-3 7,-2 14,-3 20,-5 7,-2 11,-3 14,-4 12,-4 23,-7 32,-10l10 44c-51,18 -91,27 -120,27 -52,0 -94,-16 -126,-48 -32,-32 -48,-80 -48,-144 0,-64 15,-114 45,-150 30,-35 68,-53 114,-53 45,0 81,15 106,44 26,30 39,70 39,120 0,14 -1,30 -2,47zm-240 -44l186 0c0,-37 -6,-67 -19,-87 -14,-20 -37,-31 -70,-31 -32,0 -57,12 -72,33 -15,22 -24,51 -25,85zm665 -160l80 135 81 -135 63 0 -112 188 117 195 -64 0 -85 -151 -85 151 -63 0 117 -195 -113 -188 64 0zm883 204l-244 0c0,49 11,84 34,104 24,21 53,31 88,31 18,0 31,-1 38,-3 7,-2 14,-3 20,-5 6,-2 11,-3 13,-4 13,-4 24,-7 33,-10l9 44c-51,18 -91,27 -119,27 -53,0 -95,-16 -126,-48 -32,-32 -48,-80 -48,-144 0,-64 15,-114 45,-150 30,-35 67,-53 113,-53 46,0 81,15 107,44 25,30 38,70 38,120 0,14 0,30 -1,47zm-241 -44l187 0c0,-37 -6,-67 -20,-87 -13,-20 -36,-31 -69,-31 -33,0 -57,12 -72,33 -16,22 -24,51 -26,85zm914 44l-244 0c0,49 12,84 35,104 23,21 52,31 88,31 18,0 30,-1 37,-3 8,-2 14,-3 21,-5 6,-2 10,-3 13,-4 13,-4 24,-7 33,-10l9 44c-51,18 -91,27 -119,27 -53,0 -95,-16 -127,-48 -31,-32 -47,-80 -47,-144 0,-64 15,-114 45,-150 29,-35 67,-53 113,-53 46,0 81,15 107,44 25,30 38,70 38,120 0,14 -1,30 -2,47zm-240 -44l187 0c0,-37 -7,-67 -20,-87 -13,-20 -36,-31 -69,-31 -33,0 -57,12 -73,33 -15,22 -24,51 -25,85zm2826 141l0 -255 -52 0 0 -46 53 0 0 -109 58 0 0 109 93 0 0 46 -94 0 0 244c0,34 17,51 52,51 8,0 21,-1 38,-4l8 41c-21,7 -42,10 -65,10 -22,0 -43,-7 -62,-21 -19,-13 -29,-35 -29,-66zm821 -97l-244 0c0,49 12,84 35,104 23,21 52,31 88,31 18,0 30,-1 37,-3 7,-2 14,-3 20,-5 7,-2 11,-3 14,-4 13,-4 24,-7 33,-10l9 44c-51,18 -91,27 -120,27 -52,0 -94,-16 -126,-48 -32,-32 -47,-80 -47,-144 0,-64 15,-114 45,-150 29,-35 67,-53 113,-53 45,0 81,15 107,44 25,30 38,70 38,120 0,14 -1,30 -2,47zm-240 -44l187 0c0,-37 -7,-67 -20,-87 -13,-20 -37,-31 -69,-31 -33,0 -57,12 -73,33 -15,22 -24,51 -25,85z"/>
 </g>
</svg>
